<svg id="Layer_1" data-name="Layer 1" xmlns="http://www.w3.org/2000/svg" viewBox="0 0 850.32 1099.44"><defs><style>.cls-1{fill:#bf552a;}.cls-2{fill:#fff;}</style></defs><polygon class="cls-1" points="639.38 688.5 675.98 688.5 657.58 646.6 639.38 688.5"/><path class="cls-1" d="M209,643.94a25.32,25.32,0,0,0-25.22-25.22H155.66v50.43h28.07A25.2,25.2,0,0,0,209,643.94Z"/><polygon class="cls-1" points="639.38 233.13 675.98 233.13 657.58 191.21 639.38 233.13"/><path class="cls-1" d="M0,0V1099.4h850.4V0Zm178.37,216.4c-10.24-3.41-21.05-6.83-29.78-12.32-10.81-7-17.44-16.32-17.44-29.59,0-16.87,12.71-34.89,48.55-34.89,27.3,0,48.15,13.27,49.1,13.84l-12.31,19.15c-.19,0-16.32-10.24-36.79-10.24-7.59,0-25.79,1.33-25.79,12.14,0,9.3,11.75,13.84,31.47,20.11,10.62,3.59,21.81,7,30.54,12.69,11.93,7.59,18,18,18,30.73,0,26.17-25.42,38.86-48.55,38.86-19.15,0-44.56-7.39-54.61-24.83l19.53-11.56v-.2c.19.56,9.1,13.84,35.08,13.84,12.9,0,25.79-5.49,25.79-16.11C211.13,227.63,198.8,222.88,178.33,216.44Zm41.81,264.45-3.8,22.76H144.48V368.26h22.76V480.89ZM183.73,596a48,48,0,1,1,0,96H155.66v39.43H132.91V596Zm53.66,367L150,875.2v83.06H127.23V820l87.41,88V822.87h22.75Zm234.33-3.79H374.25V823.81h95.57v22.76H397v28.26h59.93v22.75H397v38.88h78.52Zm-9-478.32-3.8,22.76H387.06V368.26h22.75V480.89ZM409.81,596V708.59h52.9l-3.8,22.76H387.06V596Zm68-319.69L473.62,198l-48.73,56.5L376.15,198,372,276.27H349.22l7.22-136,68.45,79.26,68.45-79.26,7.2,136Zm227.28,570.3h-36V959.2H646.3V846.57h-36V823.82h94.81ZM694.94,731.35l-10.62-23.89H631l-10.62,23.89h-25L657.58,596,720,731.35ZM623.65,436a34,34,0,1,1,34,34A34,34,0,0,1,623.65,436Zm71.28-160-10.61-23.89H631L620.41,276h-25l62.2-135.39L720,276Z"/><path class="cls-2" d="M185.34,254.17c-26,0-34.89-13.28-35.08-13.84v.2l-19.53,11.56c10.05,17.44,35.46,24.83,54.61,24.83,23.13,0,48.55-12.69,48.55-38.86,0-12.71-6.08-23.14-18-30.73-8.73-5.68-19.92-9.1-30.54-12.69-19.72-6.27-31.47-10.81-31.47-20.11,0-10.81,18.2-12.14,25.79-12.14,20.47,0,36.6,10.24,36.79,10.24l12.31-19.15c-.95-.57-21.8-13.84-49.1-13.84-35.84,0-48.55,18-48.55,34.89,0,13.27,6.63,22.56,17.44,29.59,8.73,5.49,19.54,8.91,29.78,12.32,20.47,6.44,32.8,11.19,32.8,21.62C211.13,248.68,198.24,254.17,185.34,254.17Z"/><path class="cls-2" d="M595.38,276h25L631,252.09h53.29L694.93,276h25L657.58,140.59Zm44-42.85,18.2-41.92L676,233.13Z"/><polygon class="cls-2" points="144.48 368.26 144.48 503.65 216.34 503.65 220.14 480.89 167.24 480.89 167.24 368.26 144.48 368.26"/><path class="cls-2" d="M132.91,731.35h22.75V691.92h28.07a48,48,0,1,0,0-96H132.91Zm22.75-112.63h28.07a25.22,25.22,0,1,1,0,50.43H155.66Z"/><path class="cls-2" d="M595.38,731.35h25L631,707.46h53.29l10.62,23.89h25L657.58,596Zm44-42.85,18.2-41.9L676,688.5Z"/><polygon class="cls-2" points="214.64 908 127.23 820.02 127.23 958.26 149.98 958.26 149.98 875.2 237.39 963 237.39 822.87 214.64 822.87 214.64 908"/><polygon class="cls-2" points="424.89 219.56 356.44 140.3 349.23 276.27 371.99 276.27 376.15 197.95 424.89 254.45 473.62 197.95 477.8 276.27 500.55 276.27 493.34 140.3 424.89 219.56"/><polygon class="cls-2" points="387.06 368.26 387.06 503.65 458.91 503.65 462.71 480.89 409.81 480.89 409.81 368.26 387.06 368.26"/><polygon class="cls-2" points="387.06 731.35 458.91 731.35 462.71 708.59 409.81 708.59 409.81 595.96 387.06 595.96 387.06 731.35"/><polygon class="cls-2" points="397 897.58 456.93 897.58 456.93 874.83 397 874.83 397 846.57 469.82 846.57 469.82 823.81 374.25 823.81 374.25 959.21 471.72 959.21 475.52 936.46 397 936.46 397 897.58"/><polygon class="cls-2" points="610.27 846.57 646.3 846.57 646.3 959.2 669.05 959.2 669.05 846.57 705.08 846.57 705.08 823.82 610.27 823.82 610.27 846.57"/><circle class="cls-2" cx="657.68" cy="435.95" r="34.03"/></svg>